<?xml version="1.0" encoding="utf-8"?>
<!-- Generator: Adobe Illustrator 26.0.3, SVG Export Plug-In . SVG Version: 6.00 Build 0)  -->
<svg version="1.1"
	 id="svg833" xmlns:cc="http://creativecommons.org/ns#" xmlns:dc="http://purl.org/dc/elements/1.1/" xmlns:rdf="http://www.w3.org/1999/02/22-rdf-syntax-ns#" xmlns:svg="http://www.w3.org/2000/svg"
	 xmlns="http://www.w3.org/2000/svg" xmlns:xlink="http://www.w3.org/1999/xlink" x="0px" y="0px" viewBox="0 0 600 234.3"
	 style="enable-background:new 0 0 600 234.3;" xml:space="preserve">
<style type="text/css">
	.st0{fill:#646363;}
	.st1{fill:#FFFFFF;}
	.st2{fill:#64B445;}
</style>
<g id="g841" transform="matrix(1.3333333,0,0,-1.3333333,-616.06264,97.31133)">
	<g id="g1969">
		<path id="path927" class="st0" d="M533.1-90.8h4.3v37.4h-4.3V-90.8z"/>
		<path id="path937" class="st0" d="M570.1-87.4c0.7,0,1.4,0.2,2,0.4v-3.5c-1-0.4-2.2-0.6-3.2-0.6c-2.1,0-4,0.9-4.8,3.1
			c-2.6-2.2-5.9-3.5-10.1-3.5c-4.6,0-9.1,2.4-9.1,7.9c0,6.7,6.2,8.8,11.7,8.8c2.3,0,5-0.3,7.2-0.8v0.9c0,3.9-2.6,6.5-7.4,6.5
			c-4,0-7.2-1-9.5-1.9v4.2c2.1,0.7,5.6,1.7,9.9,1.7c6.9,0,11.3-3.8,11.3-11v-10.2C568.1-87,569-87.4,570.1-87.4 M554.9-87.8
			c3.3,0,6.6,1.4,8.9,3.8v4.8c-1.8,0.4-4.5,0.8-6.6,0.8c-3.8,0-7.9-1.1-7.9-4.9C549.3-86.4,552-87.8,554.9-87.8"/>
		<path id="path939" class="st0" d="M591.2-90.8v25.9h3.9v-3.5c1.4,1.5,4.5,4.1,8.9,4.1c3.9,0,6.8-1.7,8.3-4.4
			c2.3,2.4,5.5,4.4,9.5,4.4c6.4,0,9.9-4.5,9.9-10.6v-16h-4.3v16.1c0,3.9-2.3,6.5-6,6.5c-3.5,0-6.1-2.4-7.6-4.3
			c0.1-0.8,0.2-1.5,0.2-2.3v-16h-4.3v16.1c0,3.9-2.3,6.5-6.1,6.5c-3.8,0-6.5-2.9-7.9-4.7v-17.9L591.2-90.8z"/>
		<path id="path941" class="st0" d="M651.9-64.3c10,0,13.7-8.2,12-15.5h-20.6c0.5-5.5,5.5-7.7,10.7-7.7c3.2,0,6.3,0.9,8.5,2.1v-4.2
			c-2.4-1.2-5.8-1.9-9.2-1.9c-7.7,0-14.4,4.4-14.4,13.6C638.9-68.8,645.7-64.3,651.9-64.3 M652.1-68.3c-4.4,0-8.5-2.7-8.9-7.7h16.8
			C660.5-73.2,658.7-68.3,652.1-68.3 M648.3-61.1l4.9,7.9h5.4l-5.6-7.9H648.3z"/>
		<path id="path943" class="st0" d="M677.5-55.8v-9.1h10.4v-4h-10.4v-13.4c0-3.9,1.8-5.1,5.6-5.1c2.1,0,4,0.5,5.7,1.2v-4
			c-1.9-0.7-4.5-1.2-7-1.2c-5,0-8.6,2.7-8.6,8.4v14.2h-4.9v4h4.9v8.1L677.5-55.8z"/>
		<path id="path945" class="st0" d="M710.2-64.4v-4.3c-5.1,0.6-9.2-1.8-10.8-6v-16.2h-4.3v25.9h3.9v-4.6
			C701.1-66.1,705.7-64,710.2-64.4"/>
		<path id="path947" class="st0" d="M727.5-64.3c7.1,0,13.8-4.8,13.8-13.6s-6.8-13.6-13.8-13.6c-7,0-13.8,4.8-13.8,13.6
			S720.4-64.3,727.5-64.3 M727.5-68.4c-5.3,0-9.5-3.5-9.5-9.5c0-6,4.2-9.5,9.5-9.5s9.5,3.5,9.5,9.5C737-71.9,732.8-68.4,727.5-68.4"
			/>
		<path id="path949" class="st0" d="M763.3-64.3c7.4,0,13-5.8,13-13.6s-5.6-13.6-13-13.6c-5,0-8.2,2.3-10.1,4.5v-15.8H749v37.8h3.9
			v-4.3C755.2-66.6,758.4-64.3,763.3-64.3 M762.9-68.3c-4.6,0-8.1-3-9.6-6.4v-6.5c1.5-3.3,4.9-6.4,9.6-6.4c5,0,9.1,3.7,9.1,9.6
			S767.9-68.3,762.9-68.3"/>
		<path id="path951" class="st0" d="M796-64.3c7.1,0,13.8-4.8,13.8-13.6s-6.8-13.6-13.8-13.6c-7,0-13.8,4.8-13.8,13.6
			S789-64.3,796-64.3 M796-68.4c-5.3,0-9.5-3.5-9.5-9.5c0-6,4.2-9.5,9.5-9.5s9.5,3.5,9.5,9.5C805.6-71.9,801.3-68.4,796-68.4"/>
		<path id="path953" class="st0" d="M817.7-90.8h4.3v37.4h-4.3V-90.8z"/>
		<path id="path955" class="st0" d="M842.7-64.3c10,0,13.7-8.2,12-15.5h-20.6c0.5-5.5,5.5-7.7,10.7-7.7c3.2,0,6.3,0.9,8.5,2.1v-4.2
			c-2.4-1.2-5.8-1.9-9.2-1.9c-7.7,0-14.4,4.4-14.4,13.6C829.8-68.8,836.5-64.3,842.7-64.3 M843-68.3c-4.4,0-8.5-2.7-8.9-7.7h16.8
			C851.3-73.2,849.5-68.3,843-68.3"/>
	</g>
	<g id="g1990">
		<path id="path983" class="st1" d="M851,61.9c0,0.4,0.2,0.9,0.5,1.3l1.7,3.1c0.6,1,1.5,1.6,2.7,1.6c1.7,0,4-1.1,4-2.2
			c0-0.7-0.4-1.2-0.9-1.7l-2-2c-1.4-1.3-2.5-1.4-4.1-1.4C851.7,60.7,851,61.2,851,61.9"/>
		<path class="st2" d="M903.1,73h-92.7c-4.9,0-9-4.1-9-9V19.8c0-4.9,4.1-9,9-9H856V-5.3l16.8,26.5c0.5,0.8,1.6,1,2.3,0.5
			c0.8-0.5,1-1.6,0.5-2.3l-5.4-8.5h32.9c4.9,0,9,4.1,9,9V64C912,68.9,908,73,903.1,73z M836.6,35.3c0-6.5-5-10.1-12-10.1
			c-4.3,0-8.7,1.3-12.3,3.9l0,0c-0.8,0.6-1.4,1.6-1.4,2.7c0,1.9,1.5,3.3,3.4,3.3c0.9,0,1.6-0.3,2.1-0.7c2.5-1.8,5.2-2.9,8.4-2.9
			c2.9,0,4.7,1.2,4.7,3.1v0.1c0,1.8-1.1,2.8-6.6,4.2c-6.6,1.7-10.8,3.5-10.8,10v0.1c0,5.9,4.8,9.9,11.5,9.9c4,0,7.4-1,10.4-2.9
			c0.8-0.5,1.6-1.4,1.6-2.8c0-1.9-1.5-3.3-3.4-3.3c-0.7,0-1.3,0.2-1.8,0.5c-2.4,1.4-4.6,2.2-6.9,2.2c-2.8,0-4.2-1.3-4.2-2.9v-0.1
			c0-2.2,1.4-2.8,7.1-4.3C832.8,43.5,836.6,41.1,836.6,35.3L836.6,35.3z M862.5,25.6h-18.4c-2,0-3.6,1.6-3.6,3.6l0,0v25.5
			c0,2,1.6,3.6,3.6,3.6h18.1c1.8,0,3.2-1.4,3.2-3.2c0-1.8-1.4-3.2-3.2-3.2h-14.6v-6.6h12.5c1.8,0,3.2-1.4,3.2-3.2s-1.4-3.2-3.2-3.2
			h-12.5V32h14.8c1.8,0,3.2-1.4,3.2-3.2C865.7,27,864.3,25.6,862.5,25.6z M902.2,28.9c0-2-1.6-3.6-3.6-3.6c-2,0-3.6,1.6-3.6,3.6
			v16.3l-6.3-9.7c-0.8-1.1-1.7-1.8-3-1.8c-1.3,0-2.2,0.7-3,1.8l-6.2,9.6V28.8c0-2-1.6-3.5-3.6-3.5c-2,0-3.5,1.5-3.5,3.5l0,26.1
			c0,2,1.6,3.6,3.6,3.6h0.8c1.5,0,2.6-0.8,3.3-1.9l8.7-14.2l8.7,14.2c0.8,1.2,1.8,1.8,3.2,1.8h0.8c2,0,3.6-1.6,3.6-3.6V28.9z"/>
	</g>
	<g id="g1984">
		<path id="path957" class="st0" d="M475.3-6.5c4.3,0,8.7-1,11.8-2.8v-7.3c-3.1,2.2-7.2,3.3-11.2,3.2c-3.9-0.1-5.9-1.1-5.9-3.4
			c0-6.3,19.9-3.9,19.9-16.9c0-8.1-6.5-10.7-14.2-10.7c-5,0-9.7,1.2-13.4,3.3v7.4c4.2-2.8,8.7-3.8,12.9-3.8c4.2,0,6.8,0.9,6.8,3.5
			c0,6.8-19.9,4.3-19.9,17.1C462-9.9,468.2-6.5,475.3-6.5"/>
		<path id="path959" class="st0" d="M490.4-43.6l14.8,36.3h8.4l14.8-36.3h-8l-2.6,6.8h-16.6l-2.7-6.8H490.4z M503.6-30.4h11.7
			l-5.1,13c-0.3,0.7-0.5,1.4-0.8,2.9c-0.3-1.4-0.5-2.1-0.8-2.9L503.6-30.4z"/>
		<path id="path961" class="st0" d="M532.5-43.6h7.8v36.3h-7.8V-43.6z"/>
		<path id="path963" class="st0" d="M548.1-43.6v36.3h7.3L572.4-31c-0.1,1.5-0.2,3.3-0.2,5v18.7h7.8v-36.3h-7.3l-16.9,23.7
			c0.1-1.5,0.2-3.3,0.2-5v-18.7H548.1z"/>
		<path id="path965" class="st0" d="M614.6-7.3v-7h-11.2v-29.3h-7.7v29.3h-11.2v7L614.6-7.3z"/>
		<path id="path967" class="st0" d="M616.4-28.5h14.9v6.1h-14.9V-28.5z"/>
		<path id="path969" class="st0" d="M664.3-7.3v-6.9h-17.8v-7.7h16.2v-6.8h-16.2v-8.1h18.1v-6.9h-25.9v36.3L664.3-7.3z M647.5-3.9
			l4.7,7.7h7.9l-5.6-7.7H647.5z"/>
		<path id="path971" class="st0" d="M697.7-7.3v-7h-11.2v-29.3h-7.7v29.3h-11.2v7L697.7-7.3z"/>
		<path id="path973" class="st0" d="M702.2-43.6h7.8v36.3h-7.8V-43.6z"/>
		<path id="path975" class="st0" d="M743-7.3v-6.9h-17.8v-7.7h16.2v-6.8h-16.2v-8.1h18.1v-6.9h-25.9v36.3L743-7.3z"/>
		<path id="path977" class="st0" d="M750.7-43.6v36.3h7.3L774.9-31c-0.1,1.5-0.2,3.3-0.2,5v18.7h7.8v-36.3h-7.3l-16.9,23.7
			c0.1-1.5,0.2-3.3,0.2-5v-18.7H750.7z"/>
		<path id="path979" class="st0" d="M790-43.6v36.3h7.3L814.2-31c-0.1,1.5-0.2,3.3-0.2,5v18.7h7.8v-36.3h-7.3l-16.9,23.7
			c0.1-1.5,0.2-3.3,0.2-5v-18.7H790z"/>
		<path id="path991" class="st0" d="M854.7-7.3v-6.9h-17.8v-7.7h16.2v-6.8h-16.2v-8.1H855v-6.9h-25.9v36.3L854.7-7.3z"/>
	</g>
</g>
</svg>
